#I thivnk this works
v -1.5 -3.33067e-16 1.5
v -1.16667 -3.33067e-16 1.5
v -1.16667 -2.59052e-16 1.16667
v -1.5 -2.59052e-16 1.16667
v -0.833333 -3.33067e-16 1.5
v -0.833333 -2.59052e-16 1.16667
v -0.5 -3.33067e-16 1.5
v -0.5 -2.59052e-16 1.16667
v -0.166667 -3.33067e-16 1.5
v -0.166667 -2.59052e-16 1.16667
v 0.166667 -3.33067e-16 1.5
v 0.166667 -2.59052e-16 1.16667
v 0.5 -3.33067e-16 1.5
v 0.5 -2.59052e-16 1.16667
v 0.833333 -3.33067e-16 1.5
v 0.833333 -2.59052e-16 1.16667
v 1.16667 -3.33067e-16 1.5
v 1.16667 -2.59052e-16 1.16667
v 1.5 -3.33067e-16 1.5
v 1.5 -2.59052e-16 1.16667
v -1.16667 -1.85037e-16 0.833333
v -1.5 -1.85037e-16 0.833333
v -0.5 -1.85037e-16 0.833333
v -0.833333 -1.85037e-16 0.833333
v 0.166667 -1.85037e-16 0.833333
v -0.166667 -1.85037e-16 0.833333
v 0.833333 -1.85037e-16 0.833333
v 0.5 -1.85037e-16 0.833333
v 1.5 -1.85037e-16 0.833333
v 1.16667 -1.85037e-16 0.833333
v -1.16667 -1.11022e-16 0.5
v -1.5 -1.11022e-16 0.5
v -0.833333 -1.11022e-16 0.5
v -0.5 -1.11022e-16 0.5
v -0.166667 -1.11022e-16 0.5
v 0.166667 -1.11022e-16 0.5
v 0.5 -1.11022e-16 0.5
v 0.833333 -1.11022e-16 0.5
v 1.16667 -1.11022e-16 0.5
v 1.5 -1.11022e-16 0.5
v -1.16667 -3.70074e-17 0.166667
v -1.5 -3.70074e-17 0.166667
v -0.5 -3.70074e-17 0.166667
v -0.833333 -3.70074e-17 0.166667
v 0.166667 -3.70074e-17 0.166667
v -0.166667 -3.70074e-17 0.166667
v 0.833333 -3.70074e-17 0.166667
v 0.5 -3.70074e-17 0.166667
v 1.5 -3.70074e-17 0.166667
v 1.16667 -3.70074e-17 0.166667
v -1.16667 3.70075e-17 -0.166667
v -1.5 3.70075e-17 -0.166667
v -0.833333 3.70075e-17 -0.166667
v -0.5 3.70075e-17 -0.166667
v -0.166667 3.70075e-17 -0.166667
v 0.166667 3.70075e-17 -0.166667
v 0.5 3.70075e-17 -0.166667
v 0.833333 3.70075e-17 -0.166667
v 1.16667 3.70075e-17 -0.166667
v 1.5 3.70075e-17 -0.166667
v -1.16667 1.11022e-16 -0.5
v -1.5 1.11022e-16 -0.5
v -0.5 1.11022e-16 -0.5
v -0.833333 1.11022e-16 -0.5
v 0.166667 1.11022e-16 -0.5
v -0.166667 1.11022e-16 -0.5
v 0.833333 1.11022e-16 -0.5
v 0.5 1.11022e-16 -0.5
v 1.5 1.11022e-16 -0.5
v 1.16667 1.11022e-16 -0.5
v -1.16667 1.85037e-16 -0.833333
v -1.5 1.85037e-16 -0.833333
v -0.833333 1.85037e-16 -0.833333
v -0.5 1.85037e-16 -0.833333
v -0.166667 1.85037e-16 -0.833333
v 0.166667 1.85037e-16 -0.833333
v 0.5 1.85037e-16 -0.833333
v 0.833333 1.85037e-16 -0.833333
v 1.16667 1.85037e-16 -0.833333
v 1.5 1.85037e-16 -0.833333
v -1.16667 2.59052e-16 -1.16667
v -1.5 2.59052e-16 -1.16667
v -0.5 2.59052e-16 -1.16667
v -0.833333 2.59052e-16 -1.16667
v 0.166667 2.59052e-16 -1.16667
v -0.166667 2.59052e-16 -1.16667
v 0.833333 2.59052e-16 -1.16667
v 0.5 2.59052e-16 -1.16667
v 1.5 2.59052e-16 -1.16667
v 1.16667 2.59052e-16 -1.16667
v -1.16667 3.33067e-16 -1.5
v -1.5 3.33067e-16 -1.5
v -0.833333 3.33067e-16 -1.5
v -0.5 3.33067e-16 -1.5
v -0.166667 3.33067e-16 -1.5
v 0.166667 3.33067e-16 -1.5
v 0.5 3.33067e-16 -1.5
v 0.833333 3.33067e-16 -1.5
v 1.16667 3.33067e-16 -1.5
v 1.5 3.33067e-16 -1.5
vn 0.0 1.0 2.22045e-16
vn 0.0 1.0 2.22045e-16
vn 0.0 1.0 2.22045e-16
vn 0.0 1.0 2.22045e-16
vn 0.0 1.0 2.22045e-16
vn 0.0 1.0 2.22045e-16
vn 0.0 1.0 2.22045e-16
vn 0.0 1.0 2.22045e-16
vn 0.0 1.0 2.22045e-16
vn 0.0 1.0 2.22045e-16
vn 0.0 1.0 2.22045e-16
vn 0.0 1.0 2.22045e-16
vn 0.0 1.0 2.22045e-16
vn 0.0 1.0 2.22045e-16
vn 0.0 1.0 2.22045e-16
vn 0.0 1.0 2.22045e-16
vn 0.0 1.0 2.22045e-16
vn 0.0 1.0 2.22045e-16
vn 0.0 1.0 2.22045e-16
vn 0.0 1.0 2.22045e-16
vn 0.0 1.0 2.22045e-16
vn 0.0 1.0 2.22045e-16
vn 0.0 1.0 2.22045e-16
vn 0.0 1.0 2.22045e-16
vn 0.0 1.0 2.22045e-16
vn 0.0 1.0 2.22045e-16
vn 0.0 1.0 2.22045e-16
vn 0.0 1.0 2.22045e-16
vn 0.0 1.0 2.22045e-16
vn 0.0 1.0 2.22045e-16
vn 0.0 1.0 2.22045e-16
vn 0.0 1.0 2.22045e-16
vn 0.0 1.0 2.22045e-16
vn 0.0 1.0 2.22045e-16
vn 0.0 1.0 2.22045e-16
vn 0.0 1.0 2.22045e-16
vn 0.0 1.0 2.22045e-16
vn 0.0 1.0 2.22045e-16
vn 0.0 1.0 2.22045e-16
vn 0.0 1.0 2.22045e-16
vn 0.0 1.0 2.22045e-16
vn 0.0 1.0 2.22045e-16
vn 0.0 1.0 2.22045e-16
vn 0.0 1.0 2.22045e-16
vn 0.0 1.0 2.22045e-16
vn 0.0 1.0 2.22045e-16
vn 0.0 1.0 2.22045e-16
vn 0.0 1.0 2.22045e-16
vn 0.0 1.0 2.22045e-16
vn 0.0 1.0 2.22045e-16
vn 0.0 1.0 2.22045e-16
vn 0.0 1.0 2.22045e-16
vn 0.0 1.0 2.22045e-16
vn 0.0 1.0 2.22045e-16
vn 0.0 1.0 2.22045e-16
vn 0.0 1.0 2.22045e-16
vn 0.0 1.0 2.22045e-16
vn 0.0 1.0 2.22045e-16
vn 0.0 1.0 2.22045e-16
vn 0.0 1.0 2.22045e-16
vn 0.0 1.0 2.22045e-16
vn 0.0 1.0 2.22045e-16
vn 0.0 1.0 2.22045e-16
vn 0.0 1.0 2.22045e-16
vn 0.0 1.0 2.22045e-16
vn 0.0 1.0 2.22045e-16
vn 0.0 1.0 2.22045e-16
vn 0.0 1.0 2.22045e-16
vn 0.0 1.0 2.22045e-16
vn 0.0 1.0 2.22045e-16
vn 0.0 1.0 2.22045e-16
vn 0.0 1.0 2.22045e-16
vn 0.0 1.0 2.22045e-16
vn 0.0 1.0 2.22045e-16
vn 0.0 1.0 2.22045e-16
vn 0.0 1.0 2.22045e-16
vn 0.0 1.0 2.22045e-16
vn 0.0 1.0 2.22045e-16
vn 0.0 1.0 2.22045e-16
vn 0.0 1.0 2.22045e-16
vn 0.0 1.0 2.22045e-16
vn 0.0 1.0 2.22045e-16
vn 0.0 1.0 2.22045e-16
vn 0.0 1.0 2.22045e-16
vn 0.0 1.0 2.22045e-16
vn 0.0 1.0 2.22045e-16
vn 0.0 1.0 2.22045e-16
vn 0.0 1.0 2.22045e-16
vn 0.0 1.0 2.22045e-16
vn 0.0 1.0 2.22045e-16
vn 0.0 1.0 2.22045e-16
vn 0.0 1.0 2.22045e-16
vn 0.0 1.0 2.22045e-16
vn 0.0 1.0 2.22045e-16
vn 0.0 1.0 2.22045e-16
vn 0.0 1.0 2.22045e-16
vn 0.0 1.0 2.22045e-16
vn 0.0 1.0 2.22045e-16
vn 0.0 1.0 2.22045e-16
vn 0.0 1.0 2.22045e-16
f 2//2 3//3 4//4
f 4//4 1//1 2//2
f 5//5 6//6 3//3
f 3//3 2//2 5//5
f 7//7 8//8 6//6
f 6//6 5//5 7//7
f 9//9 10//10 8//8
f 8//8 7//7 9//9
f 11//11 12//12 10//10
f 10//10 9//9 11//11
f 13//13 14//14 12//12
f 12//12 11//11 13//13
f 15//15 16//16 14//14
f 14//14 13//13 15//15
f 17//17 18//18 16//16
f 16//16 15//15 17//17
f 19//19 20//20 18//18
f 18//18 17//17 19//19
f 3//3 21//21 22//22
f 22//22 4//4 3//3
f 8//8 23//23 24//24
f 24//24 6//6 8//8
f 12//12 25//25 26//26
f 26//26 10//10 12//12
f 16//16 27//27 28//28
f 28//28 14//14 16//16
f 20//20 29//29 30//30
f 30//30 18//18 20//20
f 21//21 31//31 32//32
f 32//32 22//22 21//21
f 24//24 33//33 31//31
f 31//31 21//21 24//24
f 23//23 34//34 33//33
f 33//33 24//24 23//23
f 26//26 35//35 34//34
f 34//34 23//23 26//26
f 25//25 36//36 35//35
f 35//35 26//26 25//25
f 28//28 37//37 36//36
f 36//36 25//25 28//28
f 27//27 38//38 37//37
f 37//37 28//28 27//27
f 30//30 39//39 38//38
f 38//38 27//27 30//30
f 29//29 40//40 39//39
f 39//39 30//30 29//29
f 31//31 41//41 42//42
f 42//42 32//32 31//31
f 34//34 43//43 44//44
f 44//44 33//33 34//34
f 36//36 45//45 46//46
f 46//46 35//35 36//36
f 38//38 47//47 48//48
f 48//48 37//37 38//38
f 40//40 49//49 50//50
f 50//50 39//39 40//40
f 41//41 51//51 52//52
f 52//52 42//42 41//41
f 44//44 53//53 51//51
f 51//51 41//41 44//44
f 43//43 54//54 53//53
f 53//53 44//44 43//43
f 46//46 55//55 54//54
f 54//54 43//43 46//46
f 45//45 56//56 55//55
f 55//55 46//46 45//45
f 48//48 57//57 56//56
f 56//56 45//45 48//48
f 47//47 58//58 57//57
f 57//57 48//48 47//47
f 50//50 59//59 58//58
f 58//58 47//47 50//50
f 49//49 60//60 59//59
f 59//59 50//50 49//49
f 51//51 61//61 62//62
f 62//62 52//52 51//51
f 54//54 63//63 64//64
f 64//64 53//53 54//54
f 56//56 65//65 66//66
f 66//66 55//55 56//56
f 58//58 67//67 68//68
f 68//68 57//57 58//58
f 60//60 69//69 70//70
f 70//70 59//59 60//60
f 61//61 71//71 72//72
f 72//72 62//62 61//61
f 64//64 73//73 71//71
f 71//71 61//61 64//64
f 63//63 74//74 73//73
f 73//73 64//64 63//63
f 66//66 75//75 74//74
f 74//74 63//63 66//66
f 65//65 76//76 75//75
f 75//75 66//66 65//65
f 68//68 77//77 76//76
f 76//76 65//65 68//68
f 67//67 78//78 77//77
f 77//77 68//68 67//67
f 70//70 79//79 78//78
f 78//78 67//67 70//70
f 69//69 80//80 79//79
f 79//79 70//70 69//69
f 71//71 81//81 82//82
f 82//82 72//72 71//71
f 74//74 83//83 84//84
f 84//84 73//73 74//74
f 76//76 85//85 86//86
f 86//86 75//75 76//76
f 78//78 87//87 88//88
f 88//88 77//77 78//78
f 80//80 89//89 90//90
f 90//90 79//79 80//80
f 81//81 91//91 92//92
f 92//92 82//82 81//81
f 84//84 93//93 91//91
f 91//91 81//81 84//84
f 83//83 94//94 93//93
f 93//93 84//84 83//83
f 86//86 95//95 94//94
f 94//94 83//83 86//86
f 85//85 96//96 95//95
f 95//95 86//86 85//85
f 88//88 97//97 96//96
f 96//96 85//85 88//88
f 87//87 98//98 97//97
f 97//97 88//88 87//87
f 90//90 99//99 98//98
f 98//98 87//87 90//90
f 89//89 100//100 99//99
f 99//99 90//90 89//89
